<svg xmlns="http://www.w3.org/2000/svg" viewBox="0 0 3000 2100" width="3000" height="2100"><g transform="translate(486.0 250.5) rotate(0.0 639.0 567.0) scale(1.5 1.5)"><svg width="852" height="756" viewBox="0 0 852 756"><path d="M787.6 746.6H63.7C33.5 746.6 9 722 9 691.8V63.9C9 33.7 33.5 9.2 63.7 9.2h723.9c30.2 0 54.7 24.6 54.7 54.7v627.9c0 30.2-24.5 54.8-54.7 54.8z" fill="#fff"/><g fill="#fff4e2"><path d="M787.6 754.1H63.7c-34.3 0-62.2-27.9-62.2-62.2v-628c0-34.3 27.9-62.2 62.2-62.2h723.9c34.3 0 62.2 27.9 62.2 62.2v627.9c0 34.3-27.9 62.3-62.2 62.3zM63.7 16.7c-26 0-47.2 21.2-47.2 47.2v627.9c0 26 21.2 47.2 47.2 47.2h723.9c26 0 47.2-21.2 47.2-47.2V63.9c0-26-21.2-47.2-47.2-47.2z"/><circle cx="606.8" cy="83" r="27"/><circle cx="684.9" cy="83" r="27"/><circle cx="762.9" cy="83" r="27"/></g></svg></g><g transform="translate(231.0 834.0) rotate(0.0 354.0 390.75) scale(1.4985839651515729 1.4983980657914666)"><svg width="472.446" height="521.557" viewBox="0 0 472.446 521.557"><rect fill="#f7e5c6" height="506.557" rx="64.913" width="457.446" x="5.397" y="7.5"/><g fill="#430c61"><ellipse cx="65.974" cy="62.933" rx="18.617" ry="19.474"/><path d="M400.032 521.557H72.413C32.484 521.557 0 489.073 0 449.144V72.413C0 32.484 32.484 0 72.413 0h327.619c39.929 0 72.413 32.484 72.413 72.413v376.73c0 39.929-32.484 72.414-72.413 72.414zM72.413 15C40.756 15 15 40.755 15 72.413v376.73c0 31.658 25.756 57.414 57.413 57.414h327.619c31.657 0 57.413-25.756 57.413-57.414V72.413c0-31.658-25.756-57.413-57.413-57.413z"/></g></svg></g><g transform="translate(411.0 1747.5) rotate(0.0 1131.0 70.5) scale(1.5008897847928413 1.496370505582205)"><svg width="1507.106" height="94.228" viewBox="0 0 1507.106 94.228"><rect fill="#f7e5c6" height="79.228" rx="39.614" width="1492.106" x="7.5" y="7.5"/><path d="M1459.992 94.228H47.114C21.135 94.228 0 73.092 0 47.114S21.135 0 47.114 0h1412.878c25.979 0 47.114 21.136 47.114 47.114s-21.135 47.114-47.114 47.114zM47.114 15C29.406 15 15 29.406 15 47.114s14.406 32.114 32.114 32.114h1412.878c17.708 0 32.114-14.406 32.114-32.114S1477.7 15 1459.992 15z" fill="#430c61"/></svg></g><g transform="translate(862.5 583.5) rotate(0.0 705.75 593.25) scale(1.4987942749562786 1.4996682149966822)"><svg width="941.757" height="791.175" viewBox="0 0 941.757 791.175"><rect fill="#5550bc" height="623.398" rx="50" width="926.757" x="7.5" y="7.5"/><path d="M884.257 638.398H57.5c-31.705 0-57.5-25.794-57.5-57.5V57.5C0 25.794 25.795 0 57.5 0h826.757c31.706 0 57.5 25.794 57.5 57.5v523.397c0 31.706-25.794 57.5-57.5 57.5zM57.5 15C34.065 15 15 34.065 15 57.5v523.397c0 23.435 19.065 42.5 42.5 42.5h826.757c23.435 0 42.5-19.065 42.5-42.5V57.5c0-23.435-19.065-42.5-42.5-42.5z" fill="#430c61"/><path d="M383.774 630.898h174.208v101.931H383.774z" fill="#948781"/><path d="M557.983 740.328H383.775a7.5 7.5 0 0 1-7.5-7.5V630.897a7.5 7.5 0 0 1 7.5-7.5h174.208a7.5 7.5 0 0 1 7.5 7.5v101.931a7.5 7.5 0 0 1-7.5 7.5zm-166.708-15h159.208v-86.931H391.275z" fill="#430c61"/><rect fill="#948781" height="50.847" rx="25.423" width="278.224" x="331.766" y="732.828"/><path d="M584.567 791.175H357.19c-18.154 0-32.923-14.77-32.923-32.923s14.769-32.924 32.923-32.924h227.377c18.154 0 32.924 14.77 32.924 32.924s-14.77 32.923-32.924 32.923zM357.19 740.328c-9.883 0-17.923 8.041-17.923 17.924s8.04 17.923 17.923 17.923h227.377c9.883 0 17.924-8.04 17.924-17.923s-8.041-17.924-17.924-17.924z" fill="#430c61"/><circle cx="77.981" cy="77.981" fill="#ff8d61" r="21.535"/><circle cx="143.641" cy="77.981" fill="#f4bf42" r="21.535"/><circle cx="209.301" cy="77.981" fill="#a1d7f1" r="21.535"/></svg></g><g transform="translate(574.5 1677.0) rotate(0.0 322.5 45.75) scale(1.5047171131827217 1.5148505016390186)"><svg width="428.652" height="60.402" viewBox="0 0 428.652 60.402"><path d="M406.152 20.302H22.5c-8.284 0-15 6.716-15 15v17.6h413.652v-17.6c0-8.285-6.715-15-15-15z" fill="#a1d7f1"/><path d="M421.153 60.402H7.5a7.5 7.5 0 0 1-7.5-7.5v-17.6c0-12.407 10.094-22.5 22.5-22.5h383.653c12.406 0 22.5 10.093 22.5 22.5v17.6a7.5 7.5 0 0 1-7.5 7.5zM15 45.402h398.653v-10.1c0-4.135-3.365-7.5-7.5-7.5H22.5c-4.135 0-7.5 3.365-7.5 7.5z" fill="#430c61"/><path d="M50.324 7.5H32.37l-4.896 12.802H55.22z" fill="#fff4e2"/><path d="M55.22 27.802H27.474a7.5 7.5 0 0 1-7.005-10.179l4.896-12.802A7.5 7.5 0 0 1 32.37 0h17.953a7.5 7.5 0 0 1 7.005 4.821l4.896 12.802a7.497 7.497 0 0 1-7.004 10.179z" fill="#430c61"/><path d="M100.648 7.5H82.694l-4.896 12.802h27.746z" fill="#fff4e2"/><path d="M105.544 27.802H77.798a7.5 7.5 0 0 1-7.005-10.179l4.896-12.802A7.5 7.5 0 0 1 82.695 0h17.953a7.5 7.5 0 0 1 7.005 4.821l4.896 12.802a7.497 7.497 0 0 1-7.005 10.179z" fill="#430c61"/><path d="M150.972 7.5h-17.953l-4.897 12.802h27.747z" fill="#fff4e2"/><path d="M155.869 27.802h-27.746a7.5 7.5 0 0 1-7.005-10.179l4.896-12.802A7.498 7.498 0 0 1 133.019 0h17.953a7.5 7.5 0 0 1 7.005 4.821l4.896 12.802a7.497 7.497 0 0 1-7.004 10.179z" fill="#430c61"/><path d="M201.296 7.5h-17.953l-4.897 12.802h27.747z" fill="#fff4e2"/><path d="M206.193 27.802h-27.746a7.5 7.5 0 0 1-7.005-10.179l4.896-12.802A7.498 7.498 0 0 1 183.343 0h17.954a7.5 7.5 0 0 1 7.005 4.821l4.896 12.802a7.497 7.497 0 0 1-7.005 10.179z" fill="#430c61"/><path d="M301.945 7.5h-17.954l-4.896 12.802h27.746z" fill="#fff4e2"/><path d="M306.841 27.802h-27.746a7.5 7.5 0 0 1-7.005-10.179l4.896-12.802A7.5 7.5 0 0 1 283.991 0h17.953a7.5 7.5 0 0 1 7.005 4.821l4.896 12.802a7.497 7.497 0 0 1-7.004 10.179z" fill="#430c61"/><path d="M352.269 7.5h-17.954l-4.896 12.802h27.746z" fill="#fff4e2"/><path d="M357.165 27.802h-27.746a7.5 7.5 0 0 1-7.005-10.179l4.896-12.802A7.5 7.5 0 0 1 334.315 0h17.953a7.5 7.5 0 0 1 7.005 4.821l4.896 12.802a7.497 7.497 0 0 1-7.004 10.179z" fill="#430c61"/><path d="M402.593 7.5h-17.954l-4.896 12.802h27.746z" fill="#fff4e2"/><path d="M407.489 27.802h-27.746a7.5 7.5 0 0 1-7.005-10.179l4.896-12.802A7.5 7.5 0 0 1 384.639 0h17.954a7.5 7.5 0 0 1 7.005 4.821l4.896 12.802a7.497 7.497 0 0 1-7.005 10.179z" fill="#430c61"/></svg></g><g transform="translate(2136.0 1207.5) rotate(0.0 268.5 216.0) scale(1.4971979814313994 1.4998125234345707)"><svg width="358.67" height="288.036" viewBox="0 0 358.67 288.036"><rect fill="#f7e5c6" height="273.036" rx="47.667" width="343.67" x="7.5" y="7.5"/><path d="M303.503 288.036H55.167C24.748 288.036 0 263.288 0 232.869V55.167C0 24.748 24.748 0 55.167 0h248.336c30.419 0 55.167 24.748 55.167 55.167v177.702c0 30.419-24.748 55.167-55.167 55.167zM55.167 15C33.019 15 15 33.019 15 55.167v177.702c0 22.148 18.019 40.167 40.167 40.167h248.336c22.148 0 40.167-18.019 40.167-40.167V55.167C343.67 33.019 325.651 15 303.503 15z" fill="#430c61"/></svg></g><g transform="translate(390.0 916.5) rotate(0.0 195.0 309.0) scale(1.5141926441297857 1.5159245668086108)"><svg width="257.563" height="407.672" viewBox="0 0 257.563 407.672"><path d="m68.041 317.56-.093-20.526c-.097-21.434-13.269-42.047-28.517-65.909C21.036 202.337.183 169.709.001 129.362-.319 58.354 57.193.321 128.201.001s129.041 57.192 129.361 128.2c.182 40.347-20.376 73.162-38.511 102.114-15.032 23.999-28.019 44.73-27.922 66.163l.093 20.526-123.181.555z" fill="#fff"/><path d="M129.129 322.775h-.004c-4.049-.001-8.859-2.758-10.22-10.491l-20.43-116.118 14.773-2.6 15.874 90.225 15.982-90.44 14.771 2.61-20.574 116.422c-1.354 7.661-6.143 10.391-10.174 10.391z" fill="#f4bf42"/><path d="M104.448 199.399c-2.813 0-5.646-.935-8.25-2.853l-36.224-26.672a7.5 7.5 0 0 1 8.894-12.079l35.493 26.135a6.4 6.4 0 0 0 .234-.291l12.669-16.6c3.268-4.28 7.549-6.636 12.06-6.636h.032c4.549.011 8.868 2.419 12.164 6.78l12.105 16.02c.107.142.207.264.298.369l34.155-26.261a7.5 7.5 0 0 1 10.517 1.375 7.5 7.5 0 0 1-1.374 10.517l-34.858 26.801c-3.103 2.386-6.648 3.392-10.244 2.906-2.756-.372-6.808-1.83-10.46-6.664l-12.106-16.02a6.445 6.445 0 0 0-.217-.274c-.047.058-.097.12-.147.187l-12.669 16.6c-3.344 4.38-7.684 6.66-12.072 6.66z" fill="#f4bf42"/><path d="m193.439 338.183-.185-41.015-128.136.577.185 41.015c.067 14.937 8.356 27.908 20.554 34.667 4.763 19.724 22.559 34.339 43.732 34.244 21.129-.095 38.764-14.809 43.394-34.513 12.256-6.835 20.523-19.95 20.455-34.975z" fill="#948781"/><g fill="#430c61"><path d="M193.276 312.499H65.119c-4.143 0-7.5-3.358-7.5-7.5s3.357-7.5 7.5-7.5h128.157c4.143 0 7.5 3.358 7.5 7.5s-3.357 7.5-7.5 7.5zm-6.719 64H73.536c-4.143 0-7.5-3.358-7.5-7.5s3.357-7.5 7.5-7.5h113.021c4.143 0 7.5 3.358 7.5 7.5s-3.357 7.5-7.5 7.5zm6.835-33.362H65.235c-4.143 0-7.5-3.358-7.5-7.5s3.357-7.5 7.5-7.5h128.157c4.143 0 7.5 3.358 7.5 7.5s-3.357 7.5-7.5 7.5z"/></g></svg></g><g transform="translate(1218.0 181.5) rotate(0.0 494.25 635.25) scale(1.4988786840800432 1.498685332701066)"><svg width="659.493" height="847.743" viewBox="0 0 659.493 847.743"><path d="M230.7 616.769a39.929 39.929 0 0 0-5.678-4.273c-19.718-12.23-120.701-63.883-180.853 117.016-1.834 5.516 2.248 10.985 7.966 10.663l9.451.26c3.918.108 6.817 3.501 6.349 7.437-2.136 17.959-8.49 64.708-18.99 86.955-1.991 4.218-.348 9.194 3.803 10.958 11.196 4.758 36.888 4.615 86.3-45.575 0 0 58.076-77.308 44.66-2.213-1.245 6.968 6.039 11.931 12.159 8.277 40.47-24.162 137.761-96.82 34.832-189.507z" fill="#f7e5c6"/><path d="M227.59 615.106a28.577 28.577 0 0 0-4.06-3.056c-14.101-8.746-86.317-45.685-129.334 83.682-1.312 3.945 1.607 7.855 5.697 7.626l6.759.186c2.802.077 4.875 2.503 4.541 5.318-1.528 12.843-6.072 46.275-13.581 62.185-1.424 3.016-.249 6.575 2.72 7.837 8.007 3.403 26.38 3.3 61.716-32.592 0 0 41.532-55.285 31.937-1.583-.89 4.983 4.319 8.532 8.695 5.919 28.941-17.279 98.517-69.239 24.91-135.522z" fill="#fff4e2"/><path d="m260.461 713.782-132.624-93.24c-9.17-6.447-11.339-19.036-4.845-28.119l24.619-34.429 165.832 116.587-24.619 34.429c-6.495 9.083-19.194 11.219-28.364 4.772z" fill="#948781"/><path d="M272.199 724.99a27.83 27.83 0 0 1-16.051-5.072l-132.624-93.24c-6.096-4.286-10.138-10.673-11.383-17.987-1.24-7.284.447-14.61 4.751-20.629l28.946-40.481 178.104 125.214-29.017 40.579c-5.415 7.573-14.008 11.618-22.727 11.618zm-7.424-17.343c5.797 4.076 13.85 2.732 17.949-2.999l20.222-28.28-153.561-107.959-20.292 28.376a12.441 12.441 0 0 0-2.165 9.387c.568 3.342 2.424 6.266 5.223 8.234l132.624 93.24z" fill="#430c61"/><path d="m220.517 346.679-17.469 187.15S93.536 504.032 26.955 580.796c-6.896 7.95-20.109 2.545-19.429-7.923 4.244-65.365 34.928-199.948 212.991-226.195z" fill="#a1d7f1"/><path d="M18.752 592.118c-2.405 0-4.852-.473-7.224-1.447-7.499-3.08-12.009-10.256-11.487-18.282 2.242-34.539 11.45-85.385 42.582-131.479 37.623-55.704 97.107-89.904 176.8-101.651a7.5 7.5 0 0 1 8.562 8.117l-17.47 187.15a7.502 7.502 0 0 1-9.436 6.539c-.26-.07-26.978-7.157-61.124-5.024-45.076 2.813-81.188 19.524-107.334 49.669-3.623 4.177-8.646 6.407-13.868 6.407zM212.149 355.62C51.366 383.654 19.544 503.512 15.01 573.36c-.145 2.22 1.502 3.142 2.217 3.435.725.298 2.571.805 4.062-.913 28.576-32.946 69.459-51.91 118.23-54.842 24.879-1.498 45.727 1.478 56.852 3.625L212.15 355.62z" fill="#430c61"/><path d="m489.668 535.904-172.33 78.277s64.597 92.609 13.573 180.31c-5.284 9.083 4.232 19.658 13.969 15.558 60.803-25.601 178.732-98.848 144.787-274.145z" fill="#a1d7f1"/><path d="M340.45 818.465c-5.206 0-10.236-2.222-13.903-6.394-5.315-6.046-6.147-14.427-2.118-21.352 20.02-34.411 23.973-73.693 11.748-116.756-9.264-32.632-24.838-55.273-24.994-55.498l-5.133-7.388 8.187-3.726 180.987-82.209 1.808 9.335c15.2 78.496 2.332 145.503-38.245 199.158-33.556 44.371-78.881 69.803-110.996 83.325a18.887 18.887 0 0 1-7.34 1.504zM328.254 617.46c5.737 9.735 15.426 28.22 22.215 51.923 13.36 46.646 8.839 91.212-13.075 128.879-1.044 1.796-.187 3.217.418 3.905.525.597 1.979 1.888 4.158.97 64.972-27.356 168.502-96.8 142.023-256.418z" fill="#430c61"/><path d="M608.334 13.683c-440.413 168.402-462.205 549.9-462.205 549.9l82.469 56.138 82.469 56.138s346.93-160.171 342.098-631.658c-.229-22.328-23.975-38.493-44.832-30.518z" fill="#f4bf42"/><path d="M640.339 224.592c16.814-67.709 15.293-115.964 12.313-203.498-.391-11.477-11.808-19.254-22.629-15.409-81.431 28.937-123.432 46.883-179.81 86.717 57.235 26.726 119.265 61.055 190.125 132.19z" fill="#ff8d61"/><path d="M309.138 687.255 137.18 570.202l.242-4.239c.159-2.778 4.312-69.071 41.061-159.213 21.551-52.863 49.911-102.888 84.293-148.686 42.965-57.23 95.498-107.974 156.141-150.822a820.8 820.8 0 0 1 5.593-3.912c.972-.674 1.952-1.345 2.933-2.016l.45-.309a687.302 687.302 0 0 1 3.26-2.221c1.139-.771 2.278-1.542 3.426-2.311 1.22-.817 2.446-1.628 3.673-2.439l.172-.114a810.567 810.567 0 0 1 12.304-7.966 779.017 779.017 0 0 1 3.798-2.391l.803-.503c.801-.502 1.603-1.004 2.41-1.504a772.941 772.941 0 0 1 6.362-3.898c.808-.49 1.618-.976 2.43-1.461l.704-.422a856.843 856.843 0 0 1 7.461-4.426 759.449 759.449 0 0 1 5.178-3.002 799.47 799.47 0 0 1 17.181-9.611l.837-.456c.656-.357 1.313-.715 1.973-1.071a799.716 799.716 0 0 1 7.338-3.907l2.551-1.331a816.537 816.537 0 0 1 8.423-4.336 834.256 834.256 0 0 1 6.622-3.325l1.471-.734a843.136 843.136 0 0 1 7.964-3.88l2.697-1.29a901.42 901.42 0 0 1 6.15-2.906l2.433-1.138a892.614 892.614 0 0 1 8.331-3.817l1.913-.856a895.96 895.96 0 0 1 6.885-3.056l2.646-1.157a959.259 959.259 0 0 1 7.685-3.304l1.158-.494a920.247 920.247 0 0 1 8.872-3.691l2.488-1.014c2.34-.953 4.693-1.9 7.059-2.841l2.368-.942a960.493 960.493 0 0 1 9.164-3.565l.617-.234a978.367 978.367 0 0 1 21.595-7.963c7.438-2.643 15.438-1.613 21.955 2.824 6.52 4.438 10.413 11.508 10.682 19.396a982.14 982.14 0 0 1 .509 22.993c.003.073.006.146.007.219l.003.565c.033 3.315.047 6.601.045 9.873l-.009 2.406c-.008 2.56-.026 5.105-.055 7.642l-.035 2.873a967.931 967.931 0 0 1-.168 8.935l-.018.817c-.078 3.17-.178 6.327-.289 9.474l-.11 2.933a902.383 902.383 0 0 1-.293 6.933l-.134 2.879a907.74 907.74 0 0 1-.492 9.08l-.143 2.245a890.1 890.1 0 0 1-.707 10.385c-.157 2.12-.323 4.235-.496 6.344l-.076.955c-.052.657-.104 1.314-.16 1.968-.24 2.826-.494 5.639-.76 8.44-.073.77-.15 1.538-.227 2.306l-.11 1.111a830.233 830.233 0 0 1-3.52 30.017 759.187 759.187 0 0 1-.618 4.456 718.653 718.653 0 0 1-.601 4.202c-.261 1.772-.53 3.535-.801 5.296a996.179 996.179 0 0 1-1.637 10.23 769.272 769.272 0 0 1-1.389 8.05 782.703 782.703 0 0 1-1.763 9.591l-.347 1.833a737.63 737.63 0 0 1-.979 4.958 925.3 925.3 0 0 1-1.606 7.856l-.51 2.38c-.7 3.273-1.417 6.528-2.152 9.762l-.413 1.82a791.797 791.797 0 0 1-1.204 5.139v.007l-.551 2.296c-17.472 72.56-45.352 140.435-82.865 201.744-30.021 49.063-66.239 94.047-107.65 133.703-70.614 67.622-131.073 95.941-133.612 97.114l-3.855 1.78zM152.75 562.654l157.7 107.348c14.244-7.271 67.178-36.244 126.242-92.917 63.445-60.877 147.188-167.143 185.844-327.68l.542-2.259a791.19 791.19 0 0 0 1.179-5.036l.406-1.787a740.971 740.971 0 0 0 2.11-9.572l.499-2.333a696.008 696.008 0 0 0 1.575-7.701c.324-1.619.646-3.237.96-4.864l.34-1.799c.59-3.097 1.163-6.217 1.72-9.355.208-1.172.407-2.292.602-3.417.261-1.506.518-3.015.771-4.528.209-1.253.413-2.514.617-3.775a813.16 813.16 0 0 0 1.774-11.463c.198-1.347.39-2.7.58-4.053.217-1.528.419-2.983.617-4.444a716.76 716.76 0 0 0 1.267-9.768c.199-1.618.395-3.242.585-4.87.223-1.897.441-3.793.651-5.699.137-1.236.27-2.476.399-3.715.191-1.804.375-3.61.554-5.419l.112-1.127c.074-.743.148-1.486.219-2.233.262-2.755.512-5.519.748-8.297.053-.627.103-1.255.153-1.883l.078-.983a838.578 838.578 0 0 0 1.182-16.451l.14-2.195c.177-2.963.337-5.94.483-8.929l.132-2.833c.104-2.264.201-4.537.289-6.817l.108-2.885c.109-3.096.207-6.2.284-9.324l.017-.782c.07-2.933.123-5.865.166-8.809l.033-2.825c.028-2.495.047-5 .055-7.514l.009-2.378c.002-3.215-.012-6.449-.044-9.698V47.2a3.846 3.846 0 0 1-.007-.187c-.08-7.712-.25-15.377-.505-22.855-.104-3.055-1.609-5.792-4.13-7.508a9.365 9.365 0 0 0-8.491-1.089A966.498 966.498 0 0 0 609.9 23.46l-.468.177a947.088 947.088 0 0 0-9.008 3.504l-2.332.928a930.855 930.855 0 0 0-6.949 2.796l-2.442.996a903.999 903.999 0 0 0-8.732 3.633l-1.143.488a902.62 902.62 0 0 0-7.554 3.248l-2.604 1.139a870.77 870.77 0 0 0-6.771 3.005l-1.881.842a878.802 878.802 0 0 0-8.191 3.752l-2.393 1.12c-2.025.947-4.041 1.9-6.046 2.857l-2.65 1.268a850.176 850.176 0 0 0-7.826 3.813l-1.441.72a804.755 804.755 0 0 0-14.783 7.527l-2.505 1.306a808.757 808.757 0 0 0-7.204 3.836c-.641.345-1.277.692-1.912 1.038l-.85.462a739.82 739.82 0 0 0-4.858 2.664c-1.014.56-2.024 1.119-3.03 1.68a786.87 786.87 0 0 0-8.978 5.092 680.763 680.763 0 0 0-8.256 4.817 667.842 667.842 0 0 0-4.146 2.472l-.713.427c-.789.473-1.578.945-2.361 1.42a784.51 784.51 0 0 0-6.242 3.825c-.784.485-1.562.973-2.339 1.46l-.811.508a738.75 738.75 0 0 0-7.061 4.47 709.614 709.614 0 0 0-3.792 2.451 780.185 780.185 0 0 0-4.937 3.234l-.169.111a899.96 899.96 0 0 0-3.602 2.392 789.472 789.472 0 0 0-6.555 4.445l-.452.309c-.957.656-1.914 1.311-2.863 1.969a722.55 722.55 0 0 0-5.481 3.833C293.395 214.296 225.74 330.79 192.611 411.823c-30.826 75.399-38.326 134.955-39.863 150.832zm456.77-539.06-.036.012.036-.012zm-4.664-14.256-.03.01z" fill="#430c61"/><ellipse cx="447.029" cy="295.774" fill="#fff" rx="83.049" ry="83.793" transform="matrix(.05941091 -.99823361 .99823361 .05941091 125.219 724.442)"/><ellipse cx="447.403" cy="295.252" fill="#430c61" rx="60.941" ry="61.487" transform="matrix(.05941091 -.99823361 .99823361 .05941091 126.092 724.323)"/></svg></g><g transform="translate(2256.0 1266.0) rotate(0.0 152.25 152.25) scale(1.5189987079781104 1.5188623247322661)"><svg width="200.461" height="200.479" viewBox="0 0 200.461 200.479"><path d="m196.809 83.77-25.757-4.21a73.813 73.813 0 0 0-6.149-14.84l15.036-21.429a4.363 4.363 0 0 0-.488-5.587l-16.949-16.94a4.355 4.355 0 0 0-5.626-.453l-21.107 15.171a73.068 73.068 0 0 0-14.957-6.219L116.319 3.61a4.362 4.362 0 0 0-4.293-3.609h-23.97a4.359 4.359 0 0 0-4.302 3.657l-4.166 25.513a73.412 73.412 0 0 0-14.979 6.154l-21.05-15.036a4.36 4.36 0 0 0-5.618.462l-16.94 16.94a4.352 4.352 0 0 0-.488 5.579l14.814 21.194a73.807 73.807 0 0 0-6.267 15.079L3.647 83.775a4.36 4.36 0 0 0-3.643 4.297v23.97a4.362 4.362 0 0 0 3.596 4.293l25.413 4.506a73.461 73.461 0 0 0 6.267 15.079l-14.997 20.976a4.367 4.367 0 0 0 .462 5.618l16.945 16.958a4.358 4.358 0 0 0 5.583.488l21.225-14.866a73.553 73.553 0 0 0 15.014 6.206l4.254 25.544a4.346 4.346 0 0 0 4.293 3.635h23.97a4.355 4.355 0 0 0 4.289-3.596l4.554-25.67a73.244 73.244 0 0 0 14.949-6.254l21.377 14.997a4.352 4.352 0 0 0 5.587-.484l16.945-16.958a4.362 4.362 0 0 0 .453-5.631l-15.245-21.168a72.985 72.985 0 0 0 6.132-14.853l25.792-4.528a4.357 4.357 0 0 0 3.604-4.293v-23.97a4.352 4.352 0 0 0-3.652-4.302zm-96.579 46.977c-16.849 0-30.508-13.659-30.508-30.508s13.659-30.508 30.508-30.508 30.508 13.659 30.508 30.508-13.659 30.508-30.508 30.508z" fill="#ff8d61"/></svg></g><g transform="translate(2013.0 703.5) rotate(0.0 386.25 195.75) scale(1.4971974788938762 1.4977447751087445)"><svg width="515.964" height="261.393" viewBox="0 0 515.964 261.393"><path d="m220.572 138.195.359-14.995 100 2.393-.359 14.996z" fill="#430c61"/><path d="M222.415 138.293a7.463 7.463 0 0 1-3.069-.661L84.197 76.921a7.501 7.501 0 0 1 6.146-13.683l135.149 60.711a7.501 7.501 0 0 1-3.077 14.344z" fill="#430c61"/><path d="M49.245 99.834C22.091 99.834 0 77.744 0 50.59S22.091 1.345 49.245 1.345 98.489 23.436 98.489 50.59 76.398 99.835 49.245 99.835zm0-83.489C30.362 16.345 15 31.707 15 50.59s15.362 34.245 34.245 34.245S83.489 69.473 83.489 50.59 68.127 16.345 49.245 16.345z" fill="#430c61"/><rect fill="#a1d7f1" height="246.393" rx="28.085" width="246.393" x="262.07" y="7.5"/><path d="M480.379 261.393H290.155c-19.622 0-35.585-15.963-35.585-35.585V35.585C254.57 15.963 270.533 0 290.155 0h190.224c19.622 0 35.585 15.963 35.585 35.585v190.223c0 19.622-15.963 35.585-35.585 35.585zM290.155 15c-11.351 0-20.585 9.234-20.585 20.585v190.223c0 11.351 9.234 20.585 20.585 20.585h190.224c11.351 0 20.585-9.234 20.585-20.585V35.585c0-11.351-9.234-20.585-20.585-20.585z" fill="#430c61"/><rect fill="#fff" height="129.67" rx="16.08" width="129.67" x="318.25" y="64.861"/><g fill="#430c61"><path d="M431.841 202.032H334.33c-13.002 0-23.58-10.578-23.58-23.58V80.941c0-13.002 10.578-23.58 23.58-23.58h97.511c13.002 0 23.579 10.578 23.579 23.58v97.511c0 13.002-10.577 23.58-23.579 23.58zM334.33 72.362c-4.731 0-8.58 3.849-8.58 8.58v97.511c0 4.731 3.849 8.58 8.58 8.58h97.511c4.73 0 8.579-3.849 8.579-8.58V80.942c0-4.731-3.849-8.58-8.579-8.58z"/><path d="m310.796 130.27 70.707-70.715L392.11 70.16l-70.707 70.714zm63.11 59.776 70.707-70.714 10.607 10.606-70.707 70.714zm-51.679-10.368L432.522 68.354l10.656 10.558-110.294 111.324z"/></g></svg></g><g transform="translate(1941.0 1648.5) rotate(0.0 122.25 60.75) scale(1.5113116578068984 1.5267079652689646)"><svg width="161.78" height="79.583" viewBox="0 0 161.78 79.583"><path d="M89.697 7.5H72.083C36.415 7.5 7.5 36.415 7.5 72.083h146.78c0-35.668-28.915-64.583-64.583-64.583z" fill="#a1d7f1"/><path d="M154.28 79.583H7.5a7.5 7.5 0 0 1-7.5-7.5C0 32.336 32.336 0 72.083 0h17.614c39.747 0 72.083 32.336 72.083 72.083a7.5 7.5 0 0 1-7.5 7.5zm-138.79-15h130.799C142.606 36.639 118.631 15 89.697 15H72.083C43.149 15 19.174 36.639 15.49 64.583z" fill="#430c61"/></svg></g></svg>